<svg width="360" height="360" viewBox="0 0 360 360" fill="none" xmlns="http://www.w3.org/2000/svg">
<path fill-rule="evenodd" clip-rule="evenodd" d="M58.3375 312.66C74.1007 260.407 122.606 222.353 180 222.353C237.394 222.353 285.899 260.407 301.663 312.66C337.521 279.756 360 232.503 360 180C360 80.5887 279.411 0 180 0C80.5887 0 0 80.5887 0 180C0 232.503 22.4789 279.756 58.3375 312.66ZM232.941 148.235C232.941 177.474 209.239 201.176 180 201.176C150.761 201.176 127.059 177.474 127.059 148.235C127.059 118.997 150.761 95.2941 180 95.2941C209.239 95.2941 232.941 118.997 232.941 148.235Z" fill="url(#paint0_linear_23_56)"/>
<path fill-rule="evenodd" clip-rule="evenodd" d="M57.8506 310.846C74.2141 258.969 122.713 221.353 180 221.353C237.287 221.353 285.786 258.969 302.15 310.846C337.133 278.174 359 231.642 359 180C359 81.141 278.859 1 180 1C81.141 1 1 81.141 1 180C1 231.642 22.8674 278.174 57.8506 310.846ZM57.5213 311.906C57.7926 312.158 58.0647 312.409 58.3375 312.66C58.4443 312.306 58.5526 311.952 58.6624 311.6C74.7583 259.893 122.995 222.353 180 222.353C237.005 222.353 285.242 259.893 301.338 311.6C301.447 311.952 301.556 312.306 301.663 312.66C301.935 312.409 302.207 312.158 302.479 311.906C337.862 279.037 360 232.104 360 180C360 80.5887 279.411 0 180 0C80.5887 0 0 80.5887 0 180C0 232.104 22.1381 279.037 57.5213 311.906ZM233.941 148.235C233.941 178.026 209.791 202.176 180 202.176C150.209 202.176 126.059 178.026 126.059 148.235C126.059 118.444 150.209 94.2941 180 94.2941C209.791 94.2941 233.941 118.444 233.941 148.235ZM180 201.176C209.239 201.176 232.941 177.474 232.941 148.235C232.941 118.997 209.239 95.2941 180 95.2941C150.761 95.2941 127.059 118.997 127.059 148.235C127.059 177.474 150.761 201.176 180 201.176Z" fill="url(#paint1_linear_23_56)"/>
<path fill-rule="evenodd" clip-rule="evenodd" d="M180 315C254.558 315 315 254.558 315 180C315 105.442 254.558 45 180 45C105.442 45 45 105.442 45 180C45 254.558 105.442 315 180 315ZM180 360C279.411 360 360 279.411 360 180C360 80.5887 279.411 0 180 0C80.5887 0 0 80.5887 0 180C0 279.411 80.5887 360 180 360Z" fill="url(#paint2_linear_23_56)"/>
<defs>
<linearGradient id="paint0_linear_23_56" x1="0" y1="180" x2="360" y2="180" gradientUnits="userSpaceOnUse">
<stop stop-color="#FF5C00"/>
<stop offset="1" stop-color="#FF2E00"/>
</linearGradient>
<linearGradient id="paint1_linear_23_56" x1="0" y1="180" x2="360" y2="180" gradientUnits="userSpaceOnUse">
<stop stop-color="#FF5C00"/>
<stop offset="1" stop-color="#FF2E00"/>
</linearGradient>
<linearGradient id="paint2_linear_23_56" x1="0" y1="180" x2="360" y2="180" gradientUnits="userSpaceOnUse">
<stop stop-color="#FF5C00"/>
<stop offset="1" stop-color="#FF2E00"/>
</linearGradient>
</defs>
</svg>
