<svg width="405" height="470" viewBox="0 0 405 470" fill="none" xmlns="http://www.w3.org/2000/svg">
<path fill-rule="evenodd" clip-rule="evenodd" d="M216.937 58.7934C205.015 56.307 192.66 55 180 55C80.5887 55 0 135.589 0 235C0 280.94 17.2104 322.861 45.5355 354.666C49.3356 358.933 53.3358 363.018 57.5213 366.906C57.7926 367.158 58.0647 367.409 58.3375 367.66C90.3748 397.057 133.092 415 180 415C226.908 415 269.625 397.057 301.663 367.66C301.827 367.509 301.99 367.358 302.154 367.207C302.252 367.116 302.35 367.025 302.448 366.934L302.479 366.906C337.862 334.037 360 287.104 360 235C360 218.179 357.693 201.897 353.377 186.453C344.472 188.768 335.13 190 325.5 190C264.473 190 215 140.527 215 79.5C215 72.4227 215.665 65.5008 216.937 58.7934ZM80.1376 325.845C104.83 352.973 140.427 370 180 370C219.573 370 255.17 352.973 279.863 325.845C256.597 296.313 220.513 277.353 180 277.353C139.488 277.353 103.403 296.313 80.1376 325.845ZM232.941 203.235C232.941 232.474 209.239 256.176 180 256.176C150.761 256.176 127.059 232.474 127.059 203.235C127.059 173.997 150.761 150.294 180 150.294C209.239 150.294 232.941 173.997 232.941 203.235Z" fill="#F7F7F7"/>
<path fill-rule="evenodd" clip-rule="evenodd" d="M405 79.5C405 123.407 369.407 159 325.5 159C281.593 159 246 123.407 246 79.5C246 35.5934 281.593 0 325.5 0C369.407 0 405 35.5934 405 79.5ZM312 37C312 33.134 315.134 30 319 30H330C333.866 30 337 33.134 337 37V68H368C371.866 68 375 71.134 375 75V86C375 89.866 371.866 93 368 93H337V123C337 126.866 333.866 130 330 130H319C315.134 130 312 126.866 312 123V93H282C278.134 93 275 89.866 275 86V75C275 71.134 278.134 68 282 68H312V37Z" fill="url(#paint0_linear_24_65)"/>
<defs>
<linearGradient id="paint0_linear_24_65" x1="246" y1="79.5" x2="405" y2="79.5" gradientUnits="userSpaceOnUse">
<stop stop-color="#FF5C00"/>
<stop offset="1" stop-color="#FF2E00"/>
</linearGradient>
</defs>
</svg>
