<svg width="405" height="470" viewBox="0 0 405 470" fill="none" xmlns="http://www.w3.org/2000/svg">
<path fill-rule="evenodd" clip-rule="evenodd" d="M359 234.5C359 333.635 278.635 414 179.5 414C80.3649 414 0 333.635 0 234.5C0 135.365 80.3649 55 179.5 55C278.635 55 359 135.365 359 234.5ZM149.019 129.736C149.019 125.87 152.153 122.736 156.019 122.736H198.465C202.331 122.736 205.465 125.87 205.465 129.736V208.535H284.264C288.13 208.535 291.264 211.669 291.264 215.535V257.981C291.264 261.847 288.13 264.981 284.264 264.981H205.465V341.522C205.465 345.388 202.331 348.522 198.465 348.522H156.019C152.153 348.522 149.019 345.388 149.019 341.522V264.981H72.478C68.612 264.981 65.478 261.847 65.478 257.981V215.535C65.478 211.669 68.612 208.535 72.478 208.535H149.019V129.736Z" fill="url(#paint0_linear_25_140)"/>
<defs>
<linearGradient id="paint0_linear_25_140" x1="0" y1="234.5" x2="359" y2="234.5" gradientUnits="userSpaceOnUse">
<stop stop-color="#FF5C00"/>
<stop offset="1" stop-color="#FF2E00"/>
</linearGradient>
</defs>
</svg>
