<svg width="360" height="360" viewBox="0 0 360 360" fill="none" xmlns="http://www.w3.org/2000/svg">
<path fill-rule="evenodd" clip-rule="evenodd" d="M360 180C360 279.411 279.411 360 180 360C80.5887 360 0 279.411 0 180C0 80.5887 80.5887 0 180 0C279.411 0 360 80.5887 360 180ZM225.853 159.268C231.98 159.268 235.15 166.581 230.962 171.053L184.609 220.545C181.843 223.498 177.157 223.498 174.391 220.545L128.038 171.053C123.85 166.581 127.02 159.268 133.147 159.268H155.225C159.091 159.268 162.225 156.134 162.225 152.268V83C162.225 79.134 165.359 76 169.225 76H190.167C194.033 76 197.167 79.134 197.167 83V152.268C197.167 156.134 200.301 159.268 204.167 159.268L225.853 159.268ZM112 270C108.134 270 105 266.866 105 263V244.771L105 222C105 218.134 108.134 215 112 215H121C124.866 215 128 218.134 128 222L128 237.771C128 241.637 131.134 244.771 135 244.771H225C228.866 244.771 232 241.637 232 237.771V222C232 218.134 235.134 215 239 215H248C251.866 215 255 218.134 255 222V244.771V263C255 266.866 251.866 270 248 270H112Z" fill="url(#paint0_linear_18_9)"/>
<defs>
<linearGradient id="paint0_linear_18_9" x1="0" y1="180" x2="360" y2="180" gradientUnits="userSpaceOnUse">
<stop stop-color="#FF5C00"/>
<stop offset="1" stop-color="#FF2E00"/>
</linearGradient>
</defs>
</svg>
