<svg width="360" height="360" viewBox="0 0 360 360" fill="none" xmlns="http://www.w3.org/2000/svg">
<path fill-rule="evenodd" clip-rule="evenodd" d="M360 180C360 279.411 279.411 360 180 360C80.5887 360 0 279.411 0 180C0 80.5887 80.5887 0 180 0C279.411 0 360 80.5887 360 180ZM162 153C162 149.134 165.134 146 169 146H190C193.866 146 197 149.134 197 153V264C197 267.866 193.866 271 190 271H169C165.134 271 162 267.866 162 264V153ZM180 90C168.954 90 160 98.9543 160 110C160 121.046 168.954 130 180 130C191.046 130 200 121.046 200 110C200 98.9543 191.046 90 180 90Z" fill="url(#paint0_linear_19_21)"/>
<defs>
<linearGradient id="paint0_linear_19_21" x1="0" y1="180" x2="360" y2="180" gradientUnits="userSpaceOnUse">
<stop stop-color="#FF5C00"/>
<stop offset="1" stop-color="#FF2E00"/>
</linearGradient>
</defs>
</svg>
