<svg width="1426" height="312" viewBox="0 0 1426 312" fill="none" xmlns="http://www.w3.org/2000/svg">
<path d="M318.296 183.696C318.296 194.467 316.365 204.519 312.502 213.854C308.639 223.098 303.383 231.131 296.735 237.953C290.087 244.684 282.271 250.025 273.287 253.974C264.394 257.833 254.826 259.763 244.584 259.763C234.433 259.763 224.865 257.833 215.881 253.974C206.987 250.025 199.171 244.684 192.433 237.953C185.785 231.131 180.53 223.098 176.667 213.854C172.804 204.519 170.872 194.467 170.872 183.696C170.872 172.746 172.804 162.604 176.667 153.27C180.53 143.935 185.785 135.902 192.433 129.17C199.171 122.349 206.987 117.009 215.881 113.149C224.865 109.29 234.433 107.36 244.584 107.36C254.826 107.36 264.394 109.2 273.287 112.88C282.271 116.47 290.087 121.631 296.735 128.363C303.383 135.005 308.639 143.038 312.502 152.462C316.365 161.796 318.296 172.208 318.296 183.696ZM281.238 183.696C281.238 177.772 280.25 172.432 278.273 167.675C276.387 162.828 273.782 158.7 270.458 155.289C267.134 151.789 263.226 149.141 258.734 147.346C254.332 145.461 249.615 144.518 244.584 144.518C239.553 144.518 234.792 145.461 230.3 147.346C225.898 149.141 222.035 151.789 218.711 155.289C215.477 158.7 212.916 162.828 211.03 167.675C209.143 172.432 208.2 177.772 208.2 183.696C208.2 189.261 209.143 194.422 211.03 199.179C212.916 203.936 215.477 208.065 218.711 211.565C222.035 215.065 225.898 217.848 230.3 219.912C234.792 221.887 239.553 222.874 244.584 222.874C249.615 222.874 254.332 221.932 258.734 220.047C263.226 218.162 267.134 215.514 270.458 212.103C273.782 208.693 276.387 204.564 278.273 199.717C280.25 194.871 281.238 189.53 281.238 183.696Z" fill="#3F3F3F"/>
<path d="M375.703 312H338.645V112.88H347.539L362.227 130.248C365.551 127.106 369.19 124.144 373.143 121.362C377.095 118.579 381.183 116.201 385.405 114.226C389.718 112.162 394.165 110.546 398.746 109.38C403.328 108.213 407.955 107.629 412.626 107.629C422.778 107.629 432.301 109.469 441.195 113.149C450.179 116.74 457.995 121.855 464.643 128.497C471.38 135.139 476.681 143.172 480.544 152.596C484.407 161.931 486.338 172.297 486.338 183.696C486.338 195.544 484.407 206.225 480.544 215.739C476.681 225.163 471.38 233.196 464.643 239.838C457.995 246.39 450.179 251.416 441.195 254.916C432.301 258.417 422.778 260.167 412.626 260.167C409.392 260.167 406.158 259.808 402.924 259.09C399.78 258.372 396.635 257.429 393.491 256.263C390.436 255.006 387.382 253.615 384.327 252.089C381.363 250.563 378.488 248.992 375.703 247.377V312ZM449.415 183.696C449.415 177.593 448.427 172.118 446.45 167.271C444.564 162.424 441.958 158.341 438.634 155.02C435.31 151.609 431.402 149.006 426.911 147.211C422.419 145.416 417.657 144.518 412.626 144.518C407.595 144.518 402.834 145.416 398.342 147.211C393.94 149.006 390.077 151.609 386.753 155.02C383.429 158.341 380.779 162.424 378.802 167.271C376.916 172.118 375.972 177.593 375.972 183.696C375.972 189.53 376.916 194.871 378.802 199.717C380.779 204.564 383.429 208.693 386.753 212.103C390.077 215.514 393.94 218.162 398.342 220.047C402.834 221.932 407.595 222.874 412.626 222.874C417.657 222.874 422.419 221.932 426.911 220.047C431.402 218.162 435.31 215.514 438.634 212.103C441.958 208.693 444.564 204.564 446.45 199.717C448.427 194.871 449.415 189.53 449.415 183.696Z" fill="#3F3F3F"/>
<path d="M646.565 257.07H637.671L623.386 237.28C619.883 240.421 616.154 243.383 612.202 246.165C608.338 248.858 604.251 251.236 599.939 253.301C595.626 255.275 591.179 256.846 586.598 258.013C582.106 259.18 577.524 259.763 572.852 259.763C562.701 259.763 553.133 258.058 544.149 254.647C535.255 251.236 527.439 246.3 520.701 239.838C514.053 233.285 508.798 225.297 504.935 215.873C501.072 206.449 499.14 195.723 499.14 183.696C499.14 172.477 501.072 162.2 504.935 152.866C508.798 143.441 514.053 135.364 520.701 128.632C527.439 121.9 535.255 116.695 544.149 113.015C553.133 109.245 562.701 107.36 572.852 107.36C577.524 107.36 582.151 107.944 586.732 109.11C591.314 110.277 595.761 111.893 600.073 113.957C604.386 116.021 608.473 118.445 612.336 121.227C616.289 124.01 619.973 127.016 623.386 130.248L637.671 113.149H646.565V257.07ZM609.506 183.696C609.506 178.67 608.518 173.823 606.542 169.156C604.655 164.399 602.05 160.225 598.726 156.635C595.402 152.955 591.494 150.038 587.002 147.884C582.6 145.64 577.883 144.518 572.852 144.518C567.822 144.518 563.06 145.371 558.568 147.076C554.166 148.782 550.303 151.295 546.979 154.616C543.745 157.937 541.185 162.065 539.298 167.002C537.411 171.849 536.468 177.413 536.468 183.696C536.468 189.979 537.411 195.589 539.298 200.525C541.185 205.372 543.745 209.456 546.979 212.777C550.303 216.098 554.166 218.611 558.568 220.316C563.06 222.021 567.822 222.874 572.852 222.874C577.883 222.874 582.6 221.797 587.002 219.643C591.494 217.399 595.402 214.482 598.726 210.892C602.05 207.212 604.655 203.038 606.542 198.371C608.518 193.614 609.506 188.722 609.506 183.696Z" fill="#3F3F3F"/>
<path d="M787.386 257.07H667.048L727.823 149.769H667.048V113.149H787.386L726.61 220.451H787.386V257.07Z" fill="#3F3F3F"/>
<path d="M920.526 257.07H800.188L860.963 149.769H800.188V113.149H920.526L859.75 220.451H920.526V257.07Z" fill="#3F3F3F"/>
<path d="M1078.6 257.07H1069.7L1055.42 237.28C1051.91 240.421 1048.19 243.383 1044.23 246.165C1040.37 248.858 1036.28 251.236 1031.97 253.301C1027.66 255.275 1023.21 256.846 1018.63 258.013C1014.14 259.18 1009.56 259.763 1004.88 259.763C994.732 259.763 985.164 258.058 976.181 254.647C967.287 251.236 959.471 246.3 952.733 239.838C946.085 233.285 940.829 225.297 936.966 215.873C933.103 206.449 931.172 195.723 931.172 183.696C931.172 172.477 933.103 162.2 936.966 152.866C940.829 143.441 946.085 135.364 952.733 128.632C959.471 121.9 967.287 116.695 976.181 113.015C985.164 109.245 994.732 107.36 1004.88 107.36C1009.56 107.36 1014.18 107.944 1018.76 109.11C1023.35 110.277 1027.79 111.893 1032.1 113.957C1036.42 116.021 1040.5 118.445 1044.37 121.227C1048.32 124.01 1052 127.016 1055.42 130.248L1069.7 113.149H1078.6V257.07ZM1041.54 183.696C1041.54 178.67 1040.55 173.823 1038.57 169.156C1036.69 164.399 1034.08 160.225 1030.76 156.635C1027.43 152.955 1023.53 150.038 1019.03 147.884C1014.63 145.64 1009.91 144.518 1004.88 144.518C999.853 144.518 995.091 145.371 990.6 147.076C986.197 148.782 982.334 151.295 979.01 154.616C975.776 157.937 973.216 162.065 971.329 167.002C969.443 171.849 968.499 177.413 968.499 183.696C968.499 189.979 969.443 195.589 971.329 200.525C973.216 205.372 975.776 209.456 979.01 212.777C982.334 216.098 986.197 218.611 990.6 220.316C995.091 222.021 999.853 222.874 1004.88 222.874C1009.91 222.874 1014.63 221.797 1019.03 219.643C1023.53 217.399 1027.43 214.482 1030.76 210.892C1034.08 207.212 1036.69 203.038 1038.57 198.371C1040.55 193.614 1041.54 188.722 1041.54 183.696Z" fill="#3F3F3F"/>
<path d="M1143.55 257.07H1106.76V112.88H1115.65L1127.78 129.978C1133.71 124.593 1140.45 120.464 1148 117.592C1155.54 114.63 1163.36 113.149 1171.44 113.149H1203.92V149.769H1171.44C1167.58 149.769 1163.94 150.487 1160.53 151.923C1157.11 153.359 1154.15 155.334 1151.63 157.847C1149.12 160.36 1147.14 163.322 1145.71 166.733C1144.27 170.143 1143.55 173.778 1143.55 177.638V257.07Z" fill="#3F3F3F"/>
<path d="M1264.43 73.7023C1264.43 77.113 1263.75 80.2993 1262.4 83.2611C1261.15 86.223 1259.4 88.8259 1257.15 91.0698C1254.9 93.2239 1252.25 94.9741 1249.2 96.3204C1246.23 97.577 1243.04 98.2052 1239.63 98.2052C1236.22 98.2052 1232.98 97.577 1229.93 96.3204C1226.96 94.9741 1224.36 93.2239 1222.11 91.0698C1219.96 88.8259 1218.2 86.223 1216.86 83.2611C1215.6 80.2993 1214.97 77.113 1214.97 73.7023C1214.97 70.3814 1215.6 67.24 1216.86 64.2781C1218.2 61.2265 1219.96 58.6236 1222.11 56.4695C1224.36 54.2256 1226.96 52.4754 1229.93 51.2189C1232.98 49.8725 1236.22 49.1994 1239.63 49.1994C1243.04 49.1994 1246.23 49.8725 1249.2 51.2189C1252.25 52.4754 1254.9 54.2256 1257.15 56.4695C1259.4 58.6236 1261.15 61.2265 1262.4 64.2781C1263.75 67.24 1264.43 70.3814 1264.43 73.7023ZM1258.09 257.07H1221.03V112.88H1258.09V257.07Z" fill="#3F3F3F"/>
<path d="M1426 257.07H1417.11L1402.82 237.28C1399.32 240.421 1395.59 243.383 1391.64 246.165C1387.77 248.858 1383.69 251.236 1379.37 253.301C1375.06 255.275 1370.61 256.846 1366.03 258.013C1361.54 259.18 1356.96 259.763 1352.29 259.763C1342.14 259.763 1332.57 258.058 1323.58 254.647C1314.69 251.236 1306.87 246.3 1300.14 239.838C1293.49 233.285 1288.23 225.297 1284.37 215.873C1280.51 206.449 1278.58 195.723 1278.58 183.696C1278.58 172.477 1280.51 162.2 1284.37 152.866C1288.23 143.441 1293.49 135.364 1300.14 128.632C1306.87 121.9 1314.69 116.695 1323.58 113.015C1332.57 109.245 1342.14 107.36 1352.29 107.36C1356.96 107.36 1361.59 107.944 1366.17 109.11C1370.75 110.277 1375.2 111.893 1379.51 113.957C1383.82 116.021 1387.91 118.445 1391.77 121.227C1395.72 124.01 1399.41 127.016 1402.82 130.248L1417.11 113.149H1426V257.07ZM1388.94 183.696C1388.94 178.67 1387.95 173.823 1385.98 169.156C1384.09 164.399 1381.49 160.225 1378.16 156.635C1374.84 152.955 1370.93 150.038 1366.44 147.884C1362.04 145.64 1357.32 144.518 1352.29 144.518C1347.26 144.518 1342.5 145.371 1338 147.076C1333.6 148.782 1329.74 151.295 1326.41 154.616C1323.18 157.937 1320.62 162.065 1318.73 167.002C1316.85 171.849 1315.9 177.413 1315.9 183.696C1315.9 189.979 1316.85 195.589 1318.73 200.525C1320.62 205.372 1323.18 209.456 1326.41 212.777C1329.74 216.098 1333.6 218.611 1338 220.316C1342.5 222.021 1347.26 222.874 1352.29 222.874C1357.32 222.874 1362.04 221.797 1366.44 219.643C1370.93 217.399 1374.84 214.482 1378.16 210.892C1381.49 207.212 1384.09 203.038 1385.98 198.371C1387.95 193.614 1388.94 188.722 1388.94 183.696Z" fill="#3F3F3F"/>
<path fill-rule="evenodd" clip-rule="evenodd" d="M90.7505 312H185.022C185.022 312 107.401 193.524 170.872 117.054C199.002 83.1622 244.584 81.5109 244.584 81.5109L1426 0H0V60.3738H90.7505V162.746C99.2137 143.076 108.27 124.937 116.43 113.09C137.39 80.052 176.71 58.1608 217.676 53.8526C182.1 62.469 146.616 86.1641 126.518 122.596C112.134 148.669 98.0145 204.113 90.7505 239.36V312Z" fill="url(#paint0_linear_1_26)"/>
<defs>
<linearGradient id="paint0_linear_1_26" x1="0" y1="156" x2="1426" y2="156" gradientUnits="userSpaceOnUse">
<stop stop-color="#FF5C00"/>
<stop offset="1" stop-color="#FF2E00"/>
</linearGradient>
</defs>
</svg>
